PathFileType	4	(X/Y/Z)	./resultDataOpenSim/trcMotMarkerGrf/sub10/qtm-13-08.trc
DataRate	CameraRate	NumFrames	NumMarkers	Units	OrigDataRate	OrigDataStartFrame	OrigNumFrames
250.000000	250.000000	12	24	m	250.000000	331	529
Frame#	Time	L.Toe.Tip			R.Toe.Tip			L.Ankle.Lat			R.Ankle.Lat			L.Ankle.Med			R.Ankle.Med			L.Heel			R.Heel			L.Knee.Lat			R.Knee.Lat			L.Knee.Med			R.Knee.Med			L.Thigh.Upper			R.Thigh.Upper			L.ASIS			R.ASIS			V.Sacral			L.Acromium			R.Acromium			C7			L.Elbow			R.Elbow			L.Wrist.Lat			R.Wrist.Lat
		X1	Y1	Z1	X2	Y2	Z2	X3	Y3	Z3	X4	Y4	Z4	X5	Y5	Z5	X6	Y6	Z6	X7	Y7	Z7	X8	Y8	Z8	X9	Y9	Z9	X10	Y10	Z10	X11	Y11	Z11	X12	Y12	Z12	X13	Y13	Z13	X14	Y14	Z14	X15	Y15	Z15	X16	Y16	Z16	X17	Y17	Z17	X18	Y18	Z18	X19	Y19	Z19	X20	Y20	Z20	X21	Y21	Z21	X22	Y22	Z22	X23	Y23	Z23	X24	Y24	Z24

331	1.32	0.10668056	0.0011560974	-0.083530263	0.86224031	0.040255547	0.10102257	0.079922584	0.13254422	-0.1266233	0.72167823	0.051984966	0.1421148	0.10924301	0.13505584	-0.046815943	0.73553683	0.080407997	0.058327729	0.029508589	0.17258177	-0.078931712	0.66995684	0.028792928	0.096918783	0.34222949	0.41946503	-0.14134928	0.68099353	0.45286898	0.1663159	0.35595505	0.37607712	-0.026063022	0.6741051	0.45628859	0.03790614	0.46891926	0.78265012	-0.17154295	0.54415191	0.85017657	0.20857671	0.55076914	0.88594083	-0.11808117	0.58997365	0.92207534	0.11673782	0.37143375	0.92911367	0.029457146	0.50725934	1.3792872	-0.14797338	0.44735303	1.3762806	0.16888917	0.40205487	1.4021792	-0.0084677114	0.47533757	1.0348858	-0.24418097	0.29458326	1.0729185	0.16765981	0.70891448	0.95164133	-0.27327121	0.26149419	0.8717671	0.29791528
332	1.324	0.10976943	0.0030048997	-0.084229379	0.86248353	0.040093874	0.10097976	0.086517608	0.13554419	-0.12791496	0.72173992	0.052055104	0.14206435	0.11563054	0.13771797	-0.047973718	0.73553566	0.080296214	0.058338503	0.037190809	0.17691791	-0.080538807	0.67003738	0.028820887	0.096990089	0.35018869	0.42043522	-0.14146396	0.68447623	0.45283818	0.16643473	0.36422458	0.3763422	-0.026500852	0.67708755	0.45629291	0.038164185	0.4760182	0.78357899	-0.17124144	0.55005951	0.85166906	0.20889011	0.55757267	0.88705691	-0.11723133	0.59632283	0.92377413	0.11750136	0.37920802	0.93081978	0.030499955	0.51314226	1.3806605	-0.14720285	0.45318376	1.3774811	0.16974442	0.40747681	1.4033304	-0.0076148069	0.48063722	1.0363032	-0.2429384	0.30183124	1.0733098	0.16840049	0.7134328	0.95180943	-0.2726608	0.26878349	0.87225081	0.2986403
333	1.328	0.11319273	0.0050020936	-0.085087362	0.8626803	0.03995391	0.10099577	0.09321563	0.13863989	-0.12911248	0.72179461	0.05209146	0.14203208	0.12207396	0.14051631	-0.049060129	0.73563349	0.080250072	0.058344213	0.044828083	0.18113364	-0.082037514	0.67010697	0.028839245	0.097028976	0.35830552	0.42134217	-0.14148908	0.68783934	0.45288293	0.1665734	0.37283018	0.37682554	-0.026953052	0.68013723	0.45628482	0.038422093	0.48305712	0.7845291	-0.17096604	0.5558832	0.85301869	0.20919307	0.56423586	0.88820052	-0.11645689	0.6025758	0.92543603	0.11826364	0.38762534	0.93251764	0.032311188	0.51900993	1.382031	-0.14647454	0.45903529	1.3787055	0.17059009	0.41289717	1.4045624	-0.006791344	0.48588777	1.0377262	-0.24172915	0.30906233	1.0737298	0.16920298	0.71785218	0.95189765	-0.27211199	0.27618365	0.87272236	0.29938962
334	1.332	0.11702803	0.0071665266	-0.086168224	0.86282444	0.03983787	0.10100454	0.10001305	0.14179177	-0.13022645	0.72182135	0.052090619	0.14201181	0.12856967	0.14341014	-0.050059265	0.73574614	0.080241156	0.058355416	0.052373453	0.18520706	-0.083384858	0.67017022	0.028848702	0.09701344	0.36659662	0.42220425	-0.14144635	0.69113502	0.45301905	0.16674716	0.38175129	0.37750734	-0.027384993	0.68323729	0.45628305	0.038677853	0.49001861	0.78551254	-0.17073656	0.56162564	0.85423325	0.20949387	0.57080316	0.88939146	-0.11574028	0.60873874	0.9270607	0.11902751	0.39565878	0.93417978	0.034002275	0.5248618	1.3834068	-0.1457822	0.46490598	1.3799662	0.17142443	0.41834795	1.4058903	-0.006016005	0.49064489	1.0391254	-0.24072181	0.3162753	1.0741859	0.1700621	0.72220396	0.95190469	-0.27158247	0.28370208	0.87318925	0.30015634
335	1.336	0.12135553	0.009529334	-0.087467784	0.8629138	0.039747185	0.10098718	0.10688356	0.14498115	-0.13125684	0.7217865	0.052075842	0.14200928	0.13510992	0.14635283	-0.050953035	0.73581664	0.08025082	0.058378992	0.059798464	0.1891374	-0.084513665	0.67022189	0.028851736	0.096955617	0.37514299	0.42302877	-0.14139818	0.69436524	0.45323125	0.16695741	0.39079257	0.3782819	-0.027681176	0.68635032	0.45630997	0.038940049	0.49688148	0.78653471	-0.17056843	0.56729332	0.8553286	0.2098003	0.57729521	0.89063945	-0.11508087	0.61482224	0.92864897	0.11979865	0.40210405	0.93553118	0.034462129	0.53069736	1.3847986	-0.14511739	0.47078053	1.3812706	0.17225105	0.42385115	1.4073214	-0.005279352	0.49421878	1.0404476	-0.24019284	0.3234686	1.0746821	0.17096963	0.72651608	0.95184912	-0.27103367	0.29134881	0.87365933	0.30094739
336	1.34	0.12625954	0.012137066	-0.088918348	0.86295518	0.039677382	0.10096466	0.11379632	0.14821317	-0.13219109	0.72168532	0.052072824	0.14202441	0.14169048	0.14930826	-0.051733221	0.73583549	0.08027374	0.058417229	0.067096399	0.19294014	-0.085382002	0.67024623	0.028854029	0.096903367	0.38397526	0.42381647	-0.14137835	0.6974327	0.45348042	0.1671923	0.39979023	0.3790644	-0.027767267	0.68943679	0.45638927	0.03920766	0.50362522	0.78759784	-0.17045553	0.57289313	0.85633139	0.21011839	0.5836979	0.89195043	-0.11448751	0.62083869	0.9302003	0.12057545	0.40700292	0.93637313	0.033312513	0.53651032	1.3862179	-0.14447276	0.47665442	1.3826196	0.17307096	0.429418	1.4088594	-0.0045656954	0.49648468	1.041695	-0.24015275	0.3306453	1.0752206	0.17191689	0.73078835	0.9517494	-0.27045496	0.29913281	0.87414263	0.30177355
337	1.344	0.13180178	0.015022708	-0.090446524	0.86296375	0.03962034	0.10096315	0.12073864	0.15150109	-0.1330142	0.72154226	0.052090948	0.14204565	0.14832814	0.15226013	-0.052407954	0.73582422	0.080311628	0.058468528	0.074279655	0.1966239	-0.085966745	0.67023229	0.028861684	0.096896555	0.39306383	0.42456509	-0.14137992	0.70018727	0.45372094	0.1674344	0.40874254	0.37985481	-0.027674613	0.69245846	0.45653754	0.039473654	0.51023611	0.78869951	-0.17036436	0.5784255	0.85727636	0.21045351	0.58999049	0.8933313	-0.11397004	0.62679649	0.93171437	0.1213479	0.41154952	0.93689503	0.031352215	0.54229028	1.3876733	-0.14384129	0.48254959	1.3840096	0.17387483	0.43504584	1.410496	-0.0038647313	0.4989057	1.0430021	-0.23974862	0.33781117	1.0758025	0.17289802	0.73498842	0.95160822	-0.26987127	0.30705944	0.87465083	0.30263862
338	1.348	0.13797687	0.018160723	-0.092016341	0.86295643	0.039570331	0.10098877	0.1277227	0.15484665	-0.13372079	0.72138651	0.052124075	0.14205992	0.15506772	0.15521529	-0.05298928	0.73581094	0.08036531	0.058527858	0.081377724	0.20018057	-0.086271243	0.67018787	0.028877369	0.0969325	0.40236985	0.42527023	-0.14138798	0.70254175	0.45392294	0.16766593	0.41772122	0.38069068	-0.027480236	0.69538626	0.45676026	0.039738387	0.51671212	0.78982928	-0.17024905	0.5838866	0.85819839	0.21081286	0.59616901	0.89478951	-0.113534	0.63269573	0.93319095	0.12210719	0.41667696	0.9374277	0.029733359	0.54802747	1.3891646	-0.1432164	0.48848457	1.3854363	0.17464671	0.44072026	1.4122083	-0.0031727866	0.50362334	1.0445655	-0.23774004	0.34497089	1.0764268	0.17390877	0.7390727	0.95142621	-0.26933501	0.31513133	0.87519436	0.30354211
339	1.352	0.14471275	0.02145984	-0.093616051	0.86294595	0.039526143	0.10102857	0.13477502	0.15823077	-0.13431724	0.72123839	0.052162846	0.14206106	0.16196235	0.15819406	-0.053478646	0.73581386	0.080430739	0.0585877	0.088444119	0.20361908	-0.08641838	0.67013719	0.028897033	0.096975338	0.41186576	0.4259278	-0.14139889	0.70452981	0.45409688	0.16788112	0.42675847	0.38159623	-0.027248344	0.69820742	0.45705349	0.040010216	0.52305442	0.79097186	-0.17007549	0.5892768	0.8591195	0.21120485	0.60223967	0.89632861	-0.11318088	0.63853351	0.93462829	0.12285125	0.42243358	0.93810711	0.028894316	0.55371435	1.3906819	-0.14259271	0.49445249	1.3868981	0.17537763	0.44642118	1.4139687	-0.0024890563	0.51089342	1.0464538	-0.23411722	0.35212768	1.0770939	0.17494169	0.74301342	0.95121342	-0.26889854	0.32334961	0.8757801	0.30448826
340	1.356	0.15192624	0.024810423	-0.095225474	0.86294027	0.039488094	0.10106654	0.14193587	0.1616239	-0.13481572	0.72111073	0.05220374	0.1420491	0.16904286	0.16120958	-0.053872467	0.73583988	0.080500151	0.05863995	0.095549555	0.20697086	-0.086645531	0.67010362	0.028910899	0.096990818	0.42151618	0.42654097	-0.14140915	0.70624913	0.45428287	0.16809182	0.43583437	0.38258139	-0.027021942	0.70092026	0.45740472	0.040294038	0.52924937	0.79211508	-0.16983828	0.59460341	0.86004283	0.21163864	0.60820181	0.8979434	-0.11291562	0.64431063	0.93602316	0.12357944	0.4284293	0.93892299	0.028508433	0.55934659	1.3922158	-0.14196606	0.5004368	1.388397	0.17606778	0.45212737	1.4157531	-0.0018113484	0.51872301	1.0485256	-0.23037889	0.35928311	1.0778145	0.17598122	0.74681481	0.95097779	-0.26857026	0.33171142	0.87641	0.30548405
341	1.36	0.15956886	0.028138172	-0.096814099	0.86294416	0.039455026	0.1010955	0.14925334	0.16499819	-0.135232	0.72101084	0.052248057	0.1420268	0.17630549	0.16425335	-0.054183749	0.73589176	0.080565621	0.058678222	0.10273752	0.21023092	-0.087071097	0.67009225	0.028913337	0.096975062	0.43127538	0.42712342	-0.14140534	0.70780049	0.4544926	0.16831414	0.4449282	0.38365052	-0.026822978	0.70352154	0.4577941	0.040585727	0.53526803	0.79325563	-0.16955542	0.59988258	0.86096388	0.21212563	0.61404738	0.89962473	-0.11274677	0.65003137	0.93737324	0.12428646	0.43433165	0.93986808	0.028086439	0.564919	1.3937644	-0.14133859	0.50643379	1.3899377	0.1767151	0.45781601	1.4175377	-0.001135399	0.52523695	1.0505626	-0.22787808	0.36643475	1.078616	0.17699982	0.75050836	0.95071455	-0.2683016	0.34020839	0.87708181	0.30653294
342	1.364	0.16761904	0.031415852	-0.098362152	0.8629591	0.039425113	0.10111795	0.15675909	0.16832862	-0.13558818	0.72093897	0.052296636	0.14199811	0.18372745	0.16729978	-0.054447415	0.73597018	0.080622079	0.058699722	0.10999185	0.21334418	-0.087550258	0.67009238	0.028911442	0.096947709	0.44111599	0.42769464	-0.14137644	0.70929056	0.45468528	0.16856452	0.45406086	0.38478908	-0.026644106	0.70600011	0.45820063	0.04087723	0.54109458	0.7944007	-0.16923853	0.60513901	0.86188251	0.21267671	0.61978538	0.90137161	-0.11267099	0.65569884	0.93868037	0.12496606	0.44001179	0.94092229	0.027412905	0.57042197	1.395331	-0.14072123	0.51245364	1.3915222	0.17731204	0.46346387	1.4192995	-0.00045754599	0.53011988	1.0524543	-0.22678382	0.37357534	1.0795323	0.17796281	0.75412322	0.95041646	-0.26803659	0.34883123	0.87779338	0.30763732
